<svg xmlns="http://www.w3.org/2000/svg" version="1.0" width="956.000000pt" height="940.000000pt" viewBox="0 0 956.000000 940.000000" preserveAspectRatio="xMidYMid meet" transform="matrix(1, 0, 0, 1, 0, 0)">

<g transform="translate(0.000000,940.000000) scale(0.100000,-0.100000)" fill="#646eda" stroke="none">
<path d="M4966 7609 c-141 -21 -225 -58 -1120 -506 -490 -245 -921 -465 -957 -489 -199 -131 -338 -362 -314 -520 5 -34 210 -453 715 -1464 663 -1327 711 -1420 755 -1458 54 -47 125 -77 226 -93 88 -15 222 0 341 37 52 17 422 196 998 484 815 408 924 466 995 523 165 134 255 294 255 452 0 39 -90 226 -714 1473 -669 1338 -717 1432 -761 1470 -93 82 -249 116 -419 91z m291 -66 c122 -48 61 61 845 -1506 l710 -1421 -4 -76 c-2 -63 -9 -88 -40 -151 -43 -86 -129 -185 -221 -255 -73 -55 -1836 -939 -1937 -972 -154 -50 -331 -55 -437 -14 -122 47 -61 -62 -845 1506 l-710 1421 4 77 c4 64 11 91 43 154 43 89 150 204 250 271 72 48 1793 911 1880 942 108 39 183 51 300 47 81 -2 124 -8 162 -23z" fill="#646eda"/>
<path d="M4310 7059 c-83 -21 -224 -70 -228 -79 -1 -3 -30 -35 -65 -71 -115 -121 -175 -279 -164 -428 4 -42 8 -83 10 -91 15 -63 32 -110 49 -137 11 -18 17 -33 13 -33 -11 0 82 -115 125 -153 115 -104 313 -183 545 -217 44 -6 105 -15 135 -20 30 -5 82 -12 115 -16 33 -4 65 -8 70 -9 6 -1 33 -5 60 -9 150 -21 199 -30 292 -52 56 -13 110 -28 120 -33 10 -4 47 -21 83 -36 151 -64 245 -128 366 -249 80 -81 164 -186 164 -206 0 -5 4 -10 9 -10 6 0 16 -11 23 -25 134 -251 194 -424 207 -594 l6 -85 23 69 c12 37 30 109 38 159 22 124 14 383 -15 516 -81 367 -323 830 -671 1285 -175 230 -314 364 -469 452 -41 24 -79 43 -84 43 -4 0 -1 -13 7 -28 8 -15 24 -59 36 -97 13 -39 37 -106 55 -150 121 -298 116 -279 78 -298 -29 -15 -63 -8 -63 14 0 5 -16 35 -35 65 -19 30 -35 56 -35 59 0 23 -111 168 -184 241 -138 137 -247 198 -409 229 -99 19 -115 18 -207 -6z m187 -119 c135 -67 217 -223 215 -413 -1 -51 5 -107 13 -131 7 -22 28 -88 45 -146 18 -58 43 -136 55 -175 12 -38 20 -74 18 -79 -7 -11 -135 3 -307 33 -80 14 -199 55 -272 92 -213 111 -306 242 -306 432 0 200 124 372 299 417 68 17 170 4 240 -30z" fill="#646eda"/>
<path d="M4293 6869 c-138 -25 -252 -185 -237 -331 28 -259 281 -386 462 -233 163 137 127 447 -62 540 -60 29 -100 35 -163 24z" fill="#646eda"/>
<path d="M3519 6618 c-212 -209 -338 -436 -390 -708 -21 -105 -15 -346 10 -478 43 -223 144 -478 296 -753 77 -139 302 -475 417 -624 170 -219 349 -379 499 -447 l36 -16 -17 56 c-45 142 -94 285 -179 518 -50 139 -91 258 -91 267 0 15 20 27 44 27 7 0 52 -62 101 -137 49 -76 92 -140 95 -143 3 -3 34 -43 69 -90 65 -86 227 -255 291 -301 159 -115 298 -169 439 -171 47 0 102 2 122 5 47 6 180 64 297 129 95 53 107 65 184 183 75 114 105 270 77 395 -5 25 -11 56 -13 70 -3 32 -25 98 -42 130 -7 14 -20 41 -28 60 -20 48 -48 93 -63 103 -7 4 -13 13 -13 19 0 19 -124 140 -191 184 -114 77 -259 126 -574 195 -55 12 -143 32 -195 44 -52 12 -113 26 -135 30 -22 4 -58 13 -80 20 -22 7 -94 30 -160 50 -297 93 -508 240 -640 444 -58 90 -122 226 -136 286 -6 28 -15 64 -20 80 -4 17 -13 73 -19 125 -18 159 23 360 101 503 11 20 16 37 11 37 -5 0 -51 -42 -103 -92z m1127 -1643 c43 -9 80 -18 84 -20 4 -2 31 -8 61 -14 164 -28 418 -95 435 -114 14 -15 28 -56 100 -282 92 -291 151 -430 215 -506 21 -26 39 -50 39 -53 0 -16 -108 -107 -155 -132 -122 -64 -221 -82 -341 -64 -99 16 -253 84 -259 114 -2 12 -9 53 -16 91 -17 103 -55 252 -100 405 -53 175 -157 507 -171 542 -12 33 -4 62 17 55 7 -3 49 -13 91 -22z" fill="#646eda"/>
<path d="M2055 2556 c-69 -26 -105 -93 -105 -192 1 -81 30 -128 150 -244 117 -113 130 -137 115 -216 -15 -83 -99 -112 -156 -55 -25 26 -29 37 -29 85 l0 56 -40 0 -40 0 0 -58 c0 -119 63 -187 175 -187 114 0 175 67 175 192 0 96 -17 126 -139 243 -89 86 -111 113 -121 148 -23 88 16 162 85 162 53 0 95 -44 95 -99 l0 -41 40 0 40 0 0 43 c0 56 -36 127 -77 150 -43 25 -119 31 -168 13z" fill="#646eda"/>
<path d="M1570 2155 l0 -405 40 0 40 0 0 405 0 405 -40 0 -40 0 0 -405z" fill="#646eda"/>
<path d="M2600 2155 l0 -405 40 0 40 0 0 185 0 185 105 0 105 0 0 -185 0 -185 40 0 40 0 0 405 0 405 -40 0 -40 0 0 -180 0 -180 -105 0 -105 0 0 180 0 180 -40 0 -40 0 0 -405z" fill="#646eda"/>
<path d="M3270 2155 l0 -405 165 0 165 0 0 40 0 40 -125 0 -125 0 0 145 0 145 100 0 100 0 0 40 0 40 -100 0 -100 0 0 140 0 140 125 0 125 0 0 40 0 40 -165 0 -165 0 0 -405z" fill="#646eda"/>
<path d="M3900 2155 l0 -405 35 0 35 0 0 312 c0 171 2 309 5 306 4 -3 33 -133 65 -289 33 -156 62 -294 65 -306 4 -19 12 -23 45 -23 22 0 40 1 40 3 1 1 30 142 64 312 l64 310 1 -312 1 -313 40 0 40 0 0 405 0 405 -58 0 -58 0 -64 -322 c-43 -219 -66 -316 -71 -303 -7 16 -129 605 -129 620 0 3 -27 5 -60 5 l-60 0 0 -405z" fill="#646eda"/>
<path d="M4837 2538 c-11 -42 -147 -765 -147 -777 0 -8 13 -11 38 -9 l37 3 14 78 15 78 105 -3 106 -3 14 -77 14 -78 45 0 c37 0 44 3 40 18 -3 9 -38 192 -79 405 l-74 387 -61 0 c-56 0 -62 -2 -67 -22z m107 -308 c21 -107 40 -205 43 -217 5 -23 3 -23 -86 -23 -50 0 -91 3 -91 8 -1 29 85 450 91 440 3 -7 23 -101 43 -208z" fill="#646eda"/>
<path d="M6170 2155 l0 -405 40 0 40 0 0 185 0 185 105 0 105 0 0 -185 0 -185 40 0 40 0 0 405 0 405 -40 0 -40 0 0 -180 0 -180 -105 0 -105 0 0 180 0 180 -40 0 -40 0 0 -405z" fill="#646eda"/>
<path d="M6850 2217 c0 -336 0 -344 23 -387 30 -60 75 -85 152 -85 75 0 120 24 149 80 20 38 21 57 24 388 l3 347 -40 0 -40 0 -3 -346 -3 -346 -28 -24 c-37 -32 -87 -32 -124 0 l-28 24 -3 346 -3 346 -39 0 -40 0 0 -343z" fill="#646eda"/>
<path d="M7510 2156 l0 -406 103 0 c211 0 257 40 257 227 0 111 -15 154 -66 188 l-30 20 30 20 c17 11 36 36 43 55 19 56 16 168 -6 217 -29 64 -63 77 -208 81 l-123 4 0 -406z m237 300 c26 -23 28 -29 28 -106 0 -77 -2 -83 -28 -106 -23 -20 -39 -24 -93 -24 l-64 0 0 130 0 130 64 0 c54 0 70 -4 93 -24z m-8 -331 c41 -21 54 -61 50 -160 -4 -81 -6 -88 -32 -111 -24 -20 -39 -24 -98 -24 l-69 0 0 155 0 155 60 0 c34 0 74 -7 89 -15z" fill="#646eda"/>
</g>
</svg>