<?xml version="1.0" encoding="UTF-8"?>
<svg xmlns="http://www.w3.org/2000/svg" xmlns:xlink="http://www.w3.org/1999/xlink" width="1600px" height="1572px" viewBox="0 0 1598 1572" version="1.1">
<g id="surface1">
<path style=" stroke:none;fill-rule:nonzero;fill:rgb(7.843137%,56.078431%,71.372549%);fill-opacity:1;" d="M 830.089844 299.515625 C 806.523438 303.027344 792.480469 309.214844 642.878906 384.136719 C 560.972656 425.109375 488.929688 461.902344 482.910156 465.914062 C 449.644531 487.820312 426.410156 526.453125 430.421875 552.875 C 431.257812 558.5625 465.527344 628.632812 549.9375 797.707031 C 660.761719 1019.625 668.785156 1035.179688 676.140625 1041.535156 C 685.167969 1049.394531 697.035156 1054.410156 713.917969 1057.085938 C 728.628906 1059.59375 751.027344 1057.085938 770.917969 1050.898438 C 779.609375 1048.054688 841.457031 1018.121094 937.738281 969.957031 C 1073.96875 901.726562 1092.191406 892.027344 1104.058594 882.492188 C 1131.636719 860.085938 1146.683594 833.328125 1146.683594 806.902344 C 1146.683594 800.382812 1131.636719 769.109375 1027.332031 560.570312 C 915.507812 336.808594 907.484375 321.089844 900.128906 314.734375 C 884.582031 301.019531 858.507812 295.335938 830.089844 299.515625 Z M 878.734375 310.554688 C 899.125 318.582031 888.929688 300.351562 1019.980469 562.40625 L 1138.660156 800.046875 L 1137.988281 812.757812 C 1137.65625 823.292969 1136.484375 827.472656 1131.304688 838.011719 C 1124.117188 852.390625 1109.742188 868.949219 1094.363281 880.65625 C 1082.160156 889.851562 787.464844 1037.6875 770.582031 1043.207031 C 744.84375 1051.566406 715.253906 1052.402344 697.535156 1045.546875 C 677.144531 1037.6875 687.339844 1055.914062 556.292969 793.691406 L 437.609375 556.054688 L 438.28125 543.175781 C 438.949219 532.472656 440.117188 527.957031 445.46875 517.421875 C 452.65625 502.539062 470.539062 483.304688 487.257812 472.101562 C 499.292969 464.074219 786.964844 319.75 801.507812 314.566406 C 819.558594 308.046875 832.097656 306.039062 851.652344 306.707031 C 865.191406 307.042969 872.382812 308.046875 878.734375 310.554688 Z M 878.734375 310.554688 "/>
<path style=" stroke:none;fill-rule:nonzero;fill:rgb(7.843137%,56.078431%,71.372549%);fill-opacity:1;" d="M 720.4375 391.496094 C 706.5625 395.007812 682.996094 403.203125 682.324219 404.707031 C 682.160156 405.207031 677.3125 410.558594 671.460938 416.578125 C 652.238281 436.816406 642.207031 463.238281 644.046875 488.15625 C 644.714844 495.179688 645.382812 502.035156 645.71875 503.375 C 648.226562 513.910156 651.066406 521.769531 653.910156 526.285156 C 655.75 529.296875 656.75 531.804688 656.082031 531.804688 C 654.242188 531.804688 669.789062 551.035156 676.976562 557.390625 C 696.199219 574.785156 729.296875 587.996094 768.078125 593.679688 C 775.429688 594.683594 785.628906 596.1875 790.640625 597.027344 C 795.65625 597.863281 804.347656 599.03125 809.863281 599.703125 C 815.382812 600.371094 820.730469 601.039062 821.566406 601.207031 C 822.570312 601.375 827.082031 602.042969 831.59375 602.710938 C 856.667969 606.222656 864.859375 607.726562 880.40625 611.40625 C 889.765625 613.582031 898.792969 616.089844 900.464844 616.925781 C 902.132812 617.59375 908.320312 620.4375 914.335938 622.945312 C 939.578125 633.648438 955.289062 644.351562 975.515625 664.589844 C 988.886719 678.132812 1002.929688 695.695312 1002.929688 699.039062 C 1002.929688 699.875 1003.597656 700.710938 1004.433594 700.710938 C 1005.4375 700.710938 1007.109375 702.550781 1008.277344 704.890625 C 1030.675781 746.867188 1040.707031 775.796875 1042.878906 804.226562 L 1043.882812 818.445312 L 1047.726562 806.902344 C 1049.730469 800.714844 1052.742188 788.675781 1054.078125 780.3125 C 1057.753906 759.578125 1056.417969 716.261719 1051.570312 694.019531 C 1038.03125 632.644531 997.578125 555.21875 939.410156 479.125 C 910.15625 440.660156 886.921875 418.253906 861.015625 403.535156 C 854.160156 399.523438 847.808594 396.34375 846.972656 396.34375 C 846.304688 396.34375 846.804688 398.519531 848.144531 401.027344 C 849.480469 403.535156 852.15625 410.894531 854.160156 417.25 C 856.335938 423.769531 860.347656 434.976562 863.355469 442.335938 C 883.582031 492.167969 882.746094 488.992188 876.394531 492.167969 C 871.546875 494.679688 865.863281 493.507812 865.863281 489.828125 C 865.863281 488.992188 863.1875 483.976562 860.011719 478.957031 C 856.835938 473.941406 854.160156 469.59375 854.160156 469.089844 C 854.160156 465.246094 835.605469 440.996094 823.40625 428.789062 C 800.335938 405.878906 782.117188 395.675781 755.039062 390.492188 C 738.488281 387.3125 735.816406 387.480469 720.4375 391.496094 Z M 751.695312 411.394531 C 774.261719 422.601562 787.96875 448.6875 787.632812 480.464844 C 787.464844 488.992188 788.46875 498.359375 789.804688 502.371094 C 790.976562 506.050781 794.488281 517.085938 797.328125 526.789062 C 800.335938 536.488281 804.515625 549.53125 806.523438 556.054688 C 808.527344 562.40625 809.863281 568.429688 809.53125 569.265625 C 808.359375 571.105469 786.964844 568.761719 758.214844 563.746094 C 744.84375 561.40625 724.949219 554.546875 712.75 548.359375 C 677.144531 529.796875 661.597656 507.890625 661.597656 476.117188 C 661.597656 442.667969 682.324219 413.902344 711.578125 406.378906 C 722.945312 403.535156 739.996094 405.710938 751.695312 411.394531 Z M 751.695312 411.394531 "/>
<path style=" stroke:none;fill-rule:nonzero;fill:rgb(7.843137%,56.078431%,71.372549%);fill-opacity:1;" d="M 717.59375 423.269531 C 694.527344 427.449219 675.472656 454.207031 677.980469 478.625 C 682.660156 521.9375 724.949219 543.175781 755.207031 517.589844 C 782.453125 494.679688 776.433594 442.835938 744.84375 427.28125 C 734.8125 422.433594 728.125 421.429688 717.59375 423.269531 Z M 717.59375 423.269531 "/>
<path style=" stroke:none;fill-rule:nonzero;fill:rgb(7.843137%,56.078431%,71.372549%);fill-opacity:1;" d="M 588.21875 465.246094 C 552.78125 500.195312 531.71875 538.160156 523.027344 583.648438 C 519.515625 601.207031 520.519531 641.511719 524.699219 663.585938 C 531.886719 700.878906 548.769531 743.523438 574.175781 789.511719 C 587.046875 812.757812 624.65625 868.949219 643.878906 893.867188 C 672.296875 930.488281 702.21875 957.246094 727.289062 968.621094 L 733.308594 971.296875 L 730.464844 961.929688 C 722.945312 938.183594 714.753906 914.269531 700.546875 875.304688 C 692.1875 852.058594 685.335938 832.15625 685.335938 830.652344 C 685.335938 828.144531 688.679688 826.136719 692.691406 826.136719 C 693.859375 826.136719 701.382812 836.503906 709.570312 849.046875 C 717.761719 861.757812 724.949219 872.460938 725.453125 872.960938 C 725.953125 873.464844 731.136719 880.152344 736.984375 888.011719 C 747.851562 902.394531 774.929688 930.65625 785.628906 938.351562 C 812.207031 957.582031 835.441406 966.613281 859.007812 966.945312 C 866.863281 966.945312 876.058594 966.613281 879.402344 966.109375 C 887.257812 965.109375 909.488281 955.40625 929.046875 944.539062 C 944.925781 935.675781 946.933594 933.667969 959.804688 913.933594 C 972.339844 894.871094 977.355469 868.78125 972.675781 847.875 C 971.839844 843.695312 970.835938 838.511719 970.5 836.171875 C 970 830.820312 966.320312 819.78125 963.480469 814.429688 C 962.308594 812.089844 960.136719 807.574219 958.800781 804.394531 C 955.457031 796.367188 950.777344 788.84375 948.269531 787.171875 C 947.097656 786.5 946.097656 784.996094 946.097656 783.992188 C 946.097656 780.816406 925.367188 760.582031 914.167969 753.222656 C 895.113281 740.34375 870.875 732.152344 818.222656 720.613281 C 809.027344 718.605469 794.320312 715.261719 785.628906 713.253906 C 776.9375 711.246094 766.738281 708.90625 763.0625 708.234375 C 759.382812 707.566406 753.367188 706.0625 749.6875 704.890625 C 746.011719 703.722656 733.976562 699.875 722.945312 696.53125 C 673.300781 680.976562 638.03125 656.394531 615.964844 622.277344 C 606.269531 607.226562 595.574219 584.484375 593.234375 574.449219 C 592.230469 569.765625 590.726562 563.746094 589.890625 561.070312 C 589.222656 558.226562 587.714844 548.863281 586.714844 540.164062 C 583.703125 513.574219 590.558594 479.960938 603.597656 456.046875 C 605.433594 452.703125 606.269531 449.859375 605.433594 449.859375 C 604.597656 449.859375 596.910156 456.882812 588.21875 465.246094 Z M 776.601562 740.011719 C 783.789062 741.515625 789.972656 743.019531 790.640625 743.355469 C 791.3125 743.691406 795.824219 744.691406 800.839844 745.695312 C 828.253906 750.378906 870.710938 761.582031 873.550781 764.761719 C 875.890625 767.269531 878.230469 774.125 890.265625 811.921875 C 905.644531 860.585938 915.507812 883.832031 926.203125 896.542969 C 929.714844 900.890625 932.722656 904.902344 932.722656 905.40625 C 932.722656 908.082031 914.671875 923.300781 906.816406 927.480469 C 886.421875 938.183594 869.875 941.191406 849.816406 938.183594 C 833.265625 935.507812 807.523438 924.136719 806.523438 919.117188 C 806.1875 917.113281 805.015625 910.253906 803.847656 903.898438 C 801.003906 886.675781 794.652344 861.757812 787.132812 836.171875 C 778.273438 806.902344 760.890625 751.382812 758.546875 745.53125 C 756.542969 740.011719 757.878906 735.160156 761.390625 736.332031 C 762.558594 736.832031 769.582031 738.503906 776.601562 740.011719 Z M 776.601562 740.011719 "/>
<path style=" stroke:none;fill-rule:nonzero;fill:rgb(7.843137%,56.078431%,71.372549%);fill-opacity:1;" d="M 343.503906 1144.550781 C 331.96875 1148.898438 325.953125 1160.101562 325.953125 1176.660156 C 326.117188 1190.203125 330.964844 1198.066406 351.023438 1217.464844 C 370.582031 1236.359375 372.753906 1240.375 370.246094 1253.585938 C 367.742188 1267.46875 353.699219 1272.316406 344.171875 1262.785156 C 339.992188 1258.4375 339.324219 1256.597656 339.324219 1248.570312 L 339.324219 1239.203125 L 325.953125 1239.203125 L 325.953125 1248.902344 C 325.953125 1268.804688 336.484375 1280.175781 355.203125 1280.175781 C 374.257812 1280.175781 384.457031 1268.972656 384.457031 1248.066406 C 384.457031 1232.011719 381.613281 1226.996094 361.222656 1207.429688 C 346.34375 1193.046875 342.667969 1188.53125 340.996094 1182.679688 C 337.152344 1167.960938 343.671875 1155.585938 355.203125 1155.585938 C 364.0625 1155.585938 371.082031 1162.945312 371.082031 1172.144531 L 371.082031 1179 L 384.457031 1179 L 384.457031 1171.808594 C 384.457031 1162.445312 378.4375 1150.570312 371.585938 1146.722656 C 364.398438 1142.542969 351.695312 1141.539062 343.503906 1144.550781 Z M 343.503906 1144.550781 "/>
<path style=" stroke:none;fill-rule:nonzero;fill:rgb(7.843137%,56.078431%,71.372549%);fill-opacity:1;" d="M 262.433594 1211.609375 L 262.433594 1279.339844 L 275.804688 1279.339844 L 275.804688 1143.878906 L 262.433594 1143.878906 Z M 262.433594 1211.609375 "/>
<path style=" stroke:none;fill-rule:nonzero;fill:rgb(7.843137%,56.078431%,71.372549%);fill-opacity:1;" d="M 434.601562 1211.609375 L 434.601562 1279.339844 L 447.976562 1279.339844 L 447.976562 1217.464844 L 483.078125 1217.464844 L 483.078125 1279.339844 L 496.449219 1279.339844 L 496.449219 1143.878906 L 483.078125 1143.878906 L 483.078125 1204.085938 L 447.976562 1204.085938 L 447.976562 1143.878906 L 434.601562 1143.878906 Z M 434.601562 1211.609375 "/>
<path style=" stroke:none;fill-rule:nonzero;fill:rgb(7.843137%,56.078431%,71.372549%);fill-opacity:1;" d="M 546.597656 1211.609375 L 546.597656 1279.339844 L 601.757812 1279.339844 L 601.757812 1265.960938 L 559.96875 1265.960938 L 559.96875 1217.464844 L 593.398438 1217.464844 L 593.398438 1204.085938 L 559.96875 1204.085938 L 559.96875 1157.257812 L 601.757812 1157.257812 L 601.757812 1143.878906 L 546.597656 1143.878906 Z M 546.597656 1211.609375 "/>
<path style=" stroke:none;fill-rule:nonzero;fill:rgb(7.843137%,56.078431%,71.372549%);fill-opacity:1;" d="M 651.902344 1211.609375 L 651.902344 1279.339844 L 663.605469 1279.339844 L 663.605469 1227.164062 C 663.605469 1198.566406 663.9375 1175.488281 664.441406 1175.988281 C 665.109375 1176.492188 669.957031 1198.230469 675.304688 1224.320312 C 680.820312 1250.410156 685.667969 1273.488281 686.171875 1275.492188 C 686.839844 1278.671875 688.175781 1279.339844 693.691406 1279.339844 C 697.371094 1279.339844 700.378906 1279.171875 700.378906 1278.839844 C 700.546875 1278.671875 705.394531 1255.089844 711.078125 1226.660156 L 721.773438 1174.820312 L 721.941406 1226.996094 L 722.109375 1279.339844 L 735.480469 1279.339844 L 735.480469 1143.878906 L 716.089844 1143.878906 L 705.394531 1197.730469 C 698.207031 1234.355469 694.359375 1250.574219 693.523438 1248.402344 C 692.355469 1245.726562 671.960938 1147.226562 671.960938 1144.71875 C 671.960938 1144.214844 667.449219 1143.878906 661.933594 1143.878906 L 651.902344 1143.878906 Z M 651.902344 1211.609375 "/>
<path style=" stroke:none;fill-rule:nonzero;fill:rgb(7.843137%,56.078431%,71.372549%);fill-opacity:1;" d="M 808.527344 1147.558594 C 806.6875 1154.582031 783.957031 1275.492188 783.957031 1277.5 C 783.957031 1278.839844 786.128906 1279.339844 790.308594 1279.007812 L 796.492188 1278.503906 L 798.832031 1265.460938 L 801.339844 1252.414062 L 818.890625 1252.917969 L 836.609375 1253.417969 L 838.949219 1266.296875 L 841.289062 1279.339844 L 848.8125 1279.339844 C 854.996094 1279.339844 856.167969 1278.839844 855.5 1276.332031 C 854.996094 1274.824219 849.144531 1244.222656 842.292969 1208.601562 L 829.921875 1143.878906 L 819.726562 1143.878906 C 810.367188 1143.878906 809.363281 1144.214844 808.527344 1147.558594 Z M 826.414062 1199.066406 C 829.921875 1216.960938 833.097656 1233.351562 833.601562 1235.359375 C 834.4375 1239.203125 834.101562 1239.203125 819.226562 1239.203125 C 810.867188 1239.203125 804.015625 1238.703125 804.015625 1237.867188 C 803.847656 1233.015625 818.222656 1162.609375 819.226562 1164.285156 C 819.726562 1165.453125 823.070312 1181.175781 826.414062 1199.066406 Z M 826.414062 1199.066406 "/>
<path style=" stroke:none;fill-rule:nonzero;fill:rgb(7.843137%,56.078431%,71.372549%);fill-opacity:1;" d="M 1031.34375 1211.609375 L 1031.34375 1279.339844 L 1044.71875 1279.339844 L 1044.71875 1217.464844 L 1079.820312 1217.464844 L 1079.820312 1279.339844 L 1093.191406 1279.339844 L 1093.191406 1143.878906 L 1079.820312 1143.878906 L 1079.820312 1204.085938 L 1044.71875 1204.085938 L 1044.71875 1143.878906 L 1031.34375 1143.878906 Z M 1031.34375 1211.609375 "/>
<path style=" stroke:none;fill-rule:nonzero;fill:rgb(7.843137%,56.078431%,71.372549%);fill-opacity:1;" d="M 1145.011719 1201.242188 C 1145.011719 1257.433594 1145.011719 1258.769531 1148.855469 1265.960938 C 1153.871094 1275.996094 1161.390625 1280.175781 1174.261719 1280.175781 C 1186.800781 1280.175781 1194.320312 1276.164062 1199.167969 1266.796875 C 1202.511719 1260.441406 1202.679688 1257.265625 1203.179688 1201.910156 L 1203.683594 1143.878906 L 1190.308594 1143.878906 L 1189.808594 1201.742188 L 1189.304688 1259.605469 L 1184.625 1263.621094 C 1178.441406 1268.972656 1170.082031 1268.972656 1163.898438 1263.621094 L 1159.21875 1259.605469 L 1158.71875 1201.742188 L 1158.214844 1143.878906 L 1145.011719 1143.878906 Z M 1145.011719 1201.242188 "/>
<path style=" stroke:none;fill-rule:nonzero;fill:rgb(7.843137%,56.078431%,71.372549%);fill-opacity:1;" d="M 1255.332031 1211.445312 L 1255.332031 1279.339844 L 1272.550781 1279.339844 C 1307.820312 1279.339844 1315.507812 1272.652344 1315.507812 1241.378906 C 1315.507812 1222.816406 1313 1215.625 1304.476562 1209.9375 L 1299.460938 1206.59375 L 1304.476562 1203.25 C 1307.316406 1201.410156 1310.492188 1197.226562 1311.664062 1194.050781 C 1314.839844 1184.6875 1314.339844 1165.957031 1310.660156 1157.761719 C 1305.8125 1147.058594 1300.128906 1144.882812 1275.894531 1144.214844 L 1255.332031 1143.546875 Z M 1294.949219 1161.273438 C 1299.292969 1165.121094 1299.628906 1166.121094 1299.628906 1179 C 1299.628906 1191.878906 1299.292969 1192.878906 1294.949219 1196.726562 C 1291.105469 1200.070312 1288.429688 1200.742188 1279.402344 1200.742188 L 1268.703125 1200.742188 L 1268.703125 1157.257812 L 1279.402344 1157.257812 C 1288.429688 1157.257812 1291.105469 1157.929688 1294.949219 1161.273438 Z M 1293.609375 1216.628906 C 1300.464844 1220.140625 1302.636719 1226.828125 1301.96875 1243.386719 C 1301.300781 1256.929688 1300.964844 1258.101562 1296.621094 1261.949219 C 1292.609375 1265.292969 1290.101562 1265.960938 1280.238281 1265.960938 L 1268.703125 1265.960938 L 1268.703125 1214.121094 L 1278.734375 1214.121094 C 1284.417969 1214.121094 1291.105469 1215.289062 1293.609375 1216.628906 Z M 1293.609375 1216.628906 "/>
</g>
</svg>
